<svg xmlns="http://www.w3.org/2000/svg" xmlns:xlink="http://www.w3.org/1999/xlink" width="28" height="28" version="1.1" viewBox="0 0 28 28"><title>icon-精选</title><g id="页面-1" fill="none" fill-rule="evenodd" stroke="none" stroke-width="1"><g id="icon" transform="translate(-147.000000, -757.000000)"><g id="icon-精选" transform="translate(147.000000, 757.000000)"><rect id="矩形" width="28" height="28" x="0" y="0"/><g id="精选2" fill-rule="nonzero" transform="translate(1.000000, 3.000000)"><polygon id="多边形" fill="#FFE300" fill-opacity=".8" points="10.951 5 19 13.75 15.79 19 6.111 19 3 13.75" transform="translate(11.000000, 12.000000) rotate(-180.000000) translate(-11.000000, -12.000000)"/><path id="形状结合" fill="#282828" d="M20.5833333,-1.45590207e-11 L25.4583333,8.25 L13,22 L0.386904762,8.25 L5.41666667,-1.45625734e-11 L20.5833333,-1.45590207e-11 Z M8.22590476,8.75 L2.20190476,8.75 L12.0689048,19.507 L9.38590476,12 L10.4489048,12 L12.9999048,19.138 L15.5489048,12 L16.6109048,12 L13.9429048,19.471 L23.6569048,8.75 L17.7729048,8.75 L17.7719048,8.75 L16.7109048,8.75 L16.7119048,8.75 L9.28790476,8.75 L9.28690476,8.75 L8.22490476,8.75 L8.22590476,8.75 Z M5.64990476,1.54 L1.86290476,7.75 L7.86890476,7.75 L5.64990476,1.54 Z M20.3429048,1.558 L18.1299048,7.75 L24.0009048,7.75 L20.3429048,1.558 Z M13,2.047 L9.83,7.708 L16.169,7.708 L13,2.047 Z M12.4399048,1 L6.51890476,1 L8.82590476,7.456 L12.4399048,1 Z M19.4809048,1 L13.5599048,1 L17.1739048,7.456 L19.4809048,1 Z"/></g></g></g></g></svg>