<svg xmlns="http://www.w3.org/2000/svg" xmlns:xlink="http://www.w3.org/1999/xlink" width="58" height="16" version="1.1" viewBox="0 0 58 16"><title>视频特惠</title><g id="20210311_站酷4.5.2" fill="none" fill-rule="evenodd" stroke="none" stroke-width="1"><g id="高高手课程活动标签" transform="translate(-1303.000000, -208.000000)"><g id="视频特惠" transform="translate(1303.000000, 208.000000)"><path id="矩形" fill="#FF4A3B" d="M8,0 L50,0 C54.418278,-8.11624501e-16 58,3.581722 58,8 C58,12.418278 54.418278,16 50,16 L0,16 L0,16 L0,8 C-5.41083001e-16,3.581722 3.581722,8.11624501e-16 8,0 Z"/><path fill="#FFF" fill-rule="nonzero" d="M8.276,13.236 L8.276,8.436 C8.66,8.748 9.032,9.108 9.404,9.516 L10.052,8.532 C9.524,8.04 8.948,7.608 8.324,7.224 C8.948,6.384 9.416,5.544 9.704,4.692 L9.704,3.732 L8.528,3.732 C8.384,3.228 8.168,2.664 7.904,2.052 L6.824,2.364 C7.064,2.808 7.268,3.264 7.448,3.732 L5.744,3.732 L5.744,4.824 L8.564,4.824 C8.024,6.048 6.992,7.296 5.468,8.592 L5.828,9.792 C6.308,9.384 6.752,8.976 7.16,8.568 L7.16,13.236 L8.276,13.236 Z M11.504,9.324 L11.504,3.66 L14.54,3.66 L14.54,9.324 L15.692,9.324 L15.692,2.568 L10.376,2.568 L10.376,9.324 L11.504,9.324 Z M9.776,13.332 C11.072,12.78 12.008,12.012 12.596,11.004 C12.764,10.668 12.92,10.296 13.064,9.876 L13.064,11.868 C13.064,12.648 13.424,13.044 14.144,13.044 L15.332,13.044 C15.716,13.044 16.016,12.948 16.208,12.768 C16.4,12.564 16.544,11.952 16.628,10.932 L15.572,10.584 C15.536,11.268 15.488,11.676 15.416,11.82 C15.344,11.94 15.248,12 15.128,12 L14.48,12 C14.264,12 14.168,11.868 14.168,11.628 L14.168,9.288 L13.232,9.288 C13.412,8.544 13.52,7.668 13.556,6.684 L13.556,4.416 L12.452,4.416 L12.452,6.684 C12.404,8.136 12.164,9.312 11.732,10.224 C11.276,11.076 10.424,11.784 9.164,12.336 L9.776,13.332 Z M22.616,6.78 L22.616,5.664 L20.984,5.664 L20.984,4.56 L22.46,4.56 L22.46,3.492 L20.984,3.492 L20.984,2.184 L19.868,2.184 L19.868,5.664 L19.184,5.664 L19.184,3.168 L18.092,3.168 L18.092,5.664 L17.492,5.664 L17.492,6.78 L22.616,6.78 Z M24.176,10.524 L24.176,5.748 L27.02,5.748 L27.02,10.524 L28.124,10.524 L28.124,4.704 L26.036,4.704 C26.084,4.368 26.12,4.008 26.144,3.636 L28.46,3.636 L28.46,2.568 L22.748,2.568 L22.748,3.636 L24.968,3.636 C24.932,3.996 24.896,4.356 24.848,4.704 L23.084,4.704 L23.084,10.524 L24.176,10.524 Z M22.856,13.272 C23.984,12.876 24.788,12.312 25.292,11.592 C25.796,10.812 26.072,9.768 26.12,8.46 L26.12,6.348 L25.016,6.348 L25.016,8.46 C24.968,9.444 24.764,10.236 24.392,10.86 C24.008,11.424 23.288,11.892 22.232,12.276 L22.856,13.272 Z M18.2,13.2 C20.768,12.348 22.316,10.572 22.844,7.872 L21.848,7.644 C21.668,8.484 21.356,9.24 20.912,9.888 L20.912,7.128 L19.82,7.128 L19.82,10.296 L20.6,10.296 C19.856,11.148 18.848,11.772 17.552,12.156 L18.2,13.2 Z M18.308,10.692 C18.752,10.08 19.112,9.204 19.388,8.076 L18.392,7.68 C18.188,8.616 17.876,9.372 17.456,9.948 L18.308,10.692 Z M27.764,13.284 L28.604,12.444 C28.052,11.796 27.38,11.136 26.588,10.476 L25.82,11.208 C26.66,11.952 27.308,12.636 27.764,13.284 Z M40.484,6.612 L40.484,5.532 L37.844,5.532 L37.844,4.392 L39.956,4.392 L39.956,3.348 L37.844,3.348 L37.844,2.148 L36.692,2.148 L36.692,3.348 L34.7,3.348 L34.7,4.392 L36.692,4.392 L36.692,5.532 L34.04,5.532 L34.04,6.612 L40.484,6.612 Z M32.78,13.236 L32.78,9.3 C33.116,9.18 33.452,9.036 33.788,8.892 L33.788,7.812 C33.464,7.956 33.128,8.088 32.78,8.232 L32.78,5.676 L33.74,5.676 L33.74,4.572 L32.78,4.572 L32.78,2.172 L31.688,2.172 L31.688,4.572 L30.968,4.572 C31.016,4.116 31.04,3.66 31.064,3.192 L30.032,3.12 C29.984,4.512 29.78,5.832 29.42,7.08 L30.416,7.368 C30.572,6.816 30.704,6.252 30.812,5.676 L31.688,5.676 L31.688,8.628 C30.956,8.844 30.212,9.024 29.468,9.168 L29.744,10.272 C30.404,10.104 31.052,9.912 31.688,9.696 L31.688,13.236 L32.78,13.236 Z M38.012,13.152 C38.732,13.152 39.104,12.756 39.104,11.964 L39.104,8.844 L40.376,8.844 L40.376,7.764 L39.104,7.764 L39.104,7.08 L38,7.08 L38,7.764 L34.304,7.764 L34.304,8.844 L38,8.844 L38,11.676 C38,11.988 37.868,12.156 37.616,12.156 C37.184,12.156 36.728,12.12 36.248,12.072 L36.488,13.152 L38.012,13.152 Z M35.828,11.628 L36.728,10.992 C36.392,10.488 35.924,9.888 35.324,9.204 L34.436,9.768 C35.012,10.44 35.48,11.064 35.828,11.628 Z M51.548,9.936 L52.388,9.36 C52.028,8.952 51.536,8.472 50.912,7.944 L51.332,7.944 L51.332,4.356 L47.564,4.356 L47.564,3.828 L52.352,3.828 L52.352,2.868 L47.564,2.868 L47.564,2.136 L46.436,2.136 L46.436,2.868 L41.648,2.868 L41.648,3.828 L46.436,3.828 L46.436,4.356 L42.668,4.356 L42.668,7.944 L46.436,7.944 L46.436,8.52 C45.068,8.544 43.556,8.556 41.9,8.58 L42.044,9.576 C46.1,9.468 49.064,9.348 50.924,9.216 C51.152,9.456 51.356,9.696 51.548,9.936 Z M46.436,5.784 L43.748,5.784 L43.748,5.196 L46.436,5.196 L46.436,5.784 Z M50.252,5.784 L47.564,5.784 L47.564,5.196 L50.252,5.196 L50.252,5.784 Z M50.252,7.104 L47.564,7.104 L47.564,6.516 L50.252,6.516 L50.252,7.104 Z M46.436,7.104 L43.748,7.104 L43.748,6.516 L46.436,6.516 L46.436,7.104 Z M47.564,8.496 L47.564,7.944 L50.012,7.944 L49.772,8.1 L50.108,8.412 C49.352,8.436 48.5,8.472 47.564,8.496 Z M47.648,11.592 L48.5,11.004 C48.176,10.596 47.72,10.128 47.132,9.588 L46.28,10.116 C46.856,10.656 47.312,11.148 47.648,11.592 Z M51.632,12.588 L52.532,11.988 C52.112,11.316 51.512,10.536 50.732,9.66 L49.868,10.2 C50.612,11.076 51.2,11.868 51.632,12.588 Z M48.716,13.044 C49.148,13.044 49.46,12.96 49.664,12.792 C49.88,12.612 50.036,12.072 50.12,11.16 L49.088,10.824 C49.052,11.388 48.98,11.724 48.884,11.844 C48.812,11.94 48.68,12 48.512,12 L45.86,12 C45.572,12 45.44,11.88 45.44,11.652 L45.44,9.888 L44.336,9.888 L44.336,11.892 C44.336,12.66 44.732,13.044 45.524,13.044 L48.716,13.044 Z M42.476,12.816 C42.992,12.06 43.388,11.172 43.676,10.14 L42.656,9.936 C42.428,10.752 42.056,11.508 41.54,12.216 L42.476,12.816 Z"/></g></g></g></svg>