<?xml version="1.0" encoding="UTF-8"?>
<svg width="82px" height="18px" viewBox="0 0 82 18" version="1.1" xmlns="http://www.w3.org/2000/svg" xmlns:xlink="http://www.w3.org/1999/xlink">
    <title>HD套餐半价</title>
    <g id="20210311_站酷4.5.2" stroke="none" stroke-width="1" fill="none" fill-rule="evenodd">
        <g id="高高手课程活动标签" transform="translate(-1303.000000, -243.000000)">
            <g id="HD套餐半价" transform="translate(1303.000000, 243.000000)">
                <rect id="矩形" fill="#FF4A3B" x="0" y="0" width="82" height="18" rx="9"></rect>
                <path d="M10.148,13 L10.148,9.16 L14.636,9.16 L14.636,13 L15.944,13 L15.944,4.432 L14.636,4.432 L14.636,8.044 L10.148,8.044 L10.148,4.432 L8.84,4.432 L8.84,13 L10.148,13 Z M20.72,13 C22.1,13 23.144,12.616 23.864,11.848 C24.548,11.104 24.896,10.06 24.896,8.716 C24.896,7.36 24.56,6.316 23.888,5.596 C23.168,4.816 22.124,4.432 20.744,4.432 L17.624,4.432 L17.624,13 L20.72,13 Z M20.48,11.884 L18.932,11.884 L18.932,5.548 L20.504,5.548 C21.584,5.548 22.376,5.8 22.88,6.316 C23.36,6.82 23.612,7.612 23.612,8.716 C23.612,9.796 23.36,10.588 22.868,11.104 C22.364,11.62 21.56,11.884 20.48,11.884 Z M34.88,14.26 L35.912,13.804 C35.468,12.988 34.928,12.22 34.304,11.5 L36.572,11.5 L36.572,10.48 L29.372,10.48 L29.372,9.952 L34.844,9.952 L34.844,9.04 L29.372,9.04 L29.372,8.536 L34.844,8.536 L34.844,7.624 L29.372,7.624 L29.372,7.108 L34.244,7.108 L34.244,6.784 C34.856,7.144 35.576,7.468 36.404,7.756 L36.92,6.7 C35.42,6.304 34.268,5.776 33.464,5.104 L36.416,5.104 L36.416,4.072 L31.628,4.072 C31.772,3.832 31.892,3.568 32,3.292 L30.896,3.16 C30.764,3.472 30.596,3.784 30.404,4.072 L26.348,4.072 L26.348,5.104 L29.432,5.104 C28.568,5.8 27.404,6.376 25.916,6.82 L26.468,7.804 C27.116,7.588 27.716,7.348 28.268,7.084 L28.268,10.48 L26.18,10.48 L26.18,11.5 L29.12,11.5 C28.496,12.556 27.908,13.108 27.368,13.156 L27.644,14.092 C30.008,13.996 32.276,13.78 34.448,13.456 C34.592,13.696 34.736,13.972 34.88,14.26 Z M33.308,6.172 L29.768,6.172 C30.2,5.836 30.572,5.488 30.908,5.104 L32.192,5.104 C32.48,5.476 32.852,5.836 33.308,6.172 Z M29.276,13.06 C29.66,12.664 30.044,12.148 30.44,11.5 L34.124,11.5 L33.308,11.776 C33.5,12.016 33.692,12.268 33.884,12.544 C32.396,12.784 30.86,12.964 29.276,13.06 Z M38.396,8.188 C40.508,7.708 42.08,6.796 43.112,5.464 L43.112,4.84 L41.564,4.84 L41.564,4.372 L43.148,4.372 L43.148,3.544 L41.564,3.544 L41.564,3.136 L40.604,3.136 L40.604,4.84 L39.992,4.84 C40.088,4.648 40.184,4.444 40.256,4.24 L39.26,4.12 C39.008,4.816 38.516,5.416 37.784,5.896 L38.372,6.64 C38.588,6.484 38.792,6.316 38.984,6.148 C39.296,6.364 39.584,6.58 39.848,6.796 C39.272,7.036 38.624,7.216 37.916,7.36 L38.396,8.188 Z M48.128,7.84 L48.68,6.976 C48.092,6.556 47.48,6.16 46.832,5.8 C47.396,5.344 47.816,4.816 48.104,4.216 L48.104,3.484 L43.748,3.484 L43.748,4.372 L46.892,4.372 C46.652,4.708 46.328,5.008 45.92,5.296 C45.368,5.008 44.792,4.744 44.192,4.492 L43.748,5.164 C44.168,5.344 44.6,5.548 45.032,5.788 C44.732,5.932 44.408,6.052 44.048,6.172 L44.648,6.964 C45.14,6.784 45.596,6.58 46.004,6.352 C46.712,6.784 47.42,7.276 48.128,7.84 Z M40.64,6.412 C40.304,6.148 39.92,5.884 39.476,5.62 C39.476,5.608 39.488,5.596 39.5,5.584 L41.816,5.584 C41.48,5.896 41.084,6.172 40.64,6.412 Z M47.888,14.32 L48.44,13.492 C47.936,13.3 47.42,13.108 46.892,12.94 C47.312,12.568 47.708,12.16 48.08,11.716 L47.18,11.26 C47.024,11.464 46.856,11.668 46.688,11.884 L46.688,9.172 C47.192,9.364 47.732,9.568 48.332,9.772 L48.944,8.86 C46.616,8.308 44.9,7.528 43.796,6.508 L42.98,6.508 C41.78,7.636 40.1,8.464 37.916,9.004 L38.516,9.928 C38.996,9.736 39.464,9.556 39.896,9.376 L39.896,12.916 C39.896,13.156 39.752,13.3 39.464,13.348 L39.764,14.248 C41.276,14.104 42.548,13.936 43.568,13.756 L43.376,12.892 C42.632,13.024 41.84,13.144 41.012,13.24 L41.012,11.98 L46.604,11.98 C46.4,12.208 46.184,12.424 45.968,12.64 C45.176,12.4 44.36,12.196 43.52,12.004 L43.088,12.64 C44.72,13.048 46.328,13.612 47.888,14.32 Z M43.016,8.86 L41.012,8.86 C41.984,8.368 42.776,7.852 43.388,7.324 C43.952,7.828 44.804,8.344 45.956,8.86 L44.036,8.86 C43.904,8.548 43.772,8.284 43.628,8.044 L42.584,8.212 C42.728,8.404 42.872,8.62 43.016,8.86 Z M45.62,10.072 L41.012,10.072 L41.012,9.544 L45.62,9.544 L45.62,10.072 Z M45.62,11.284 L41.012,11.284 L41.012,10.708 L45.62,10.708 L45.62,11.284 Z M55.964,14.284 L55.964,11.068 L60.728,11.068 L60.728,9.964 L55.964,9.964 L55.964,8.104 L59.888,8.104 L59.888,7 L55.964,7 L55.964,3.172 L54.812,3.172 L54.812,7 L50.804,7 L50.804,8.104 L54.812,8.104 L54.812,9.964 L50.048,9.964 L50.048,11.068 L54.812,11.068 L54.812,14.284 L55.964,14.284 Z M52.616,6.628 L53.684,6.1 C53.168,5.176 52.628,4.324 52.064,3.544 L51.02,4.048 C51.596,4.816 52.124,5.668 52.616,6.628 Z M58.112,6.664 C58.724,5.824 59.216,4.972 59.6,4.084 L58.592,3.592 C58.22,4.432 57.728,5.284 57.104,6.136 L58.112,6.664 Z M64.412,14.176 L64.412,5.86 C64.772,5.14 65.072,4.396 65.312,3.616 L64.244,3.112 C63.716,4.936 62.888,6.532 61.772,7.9 L62.156,9.124 C62.54,8.692 62.912,8.236 63.26,7.756 L63.26,14.176 L64.412,14.176 Z M65.228,8.404 C66.632,7.444 67.796,6.076 68.708,4.312 C69.512,5.884 70.736,7.204 72.368,8.284 L73.004,7.312 C71.228,6.136 69.968,4.78 69.236,3.22 L68.192,3.22 C67.352,4.948 66.152,6.352 64.592,7.432 L65.228,8.404 Z M70.808,14.128 L70.808,7.396 L69.704,7.396 L69.704,14.128 L70.808,14.128 Z M66.02,14.284 C67.172,13.216 67.76,11.524 67.784,9.208 L67.784,7.432 L66.68,7.432 L66.68,9.208 C66.656,11.2 66.152,12.64 65.168,13.54 L66.02,14.284 Z" fill="#FFFFFF" fill-rule="nonzero"></path>
            </g>
        </g>
    </g>
</svg>