<svg xmlns="http://www.w3.org/2000/svg" xmlns:xlink="http://www.w3.org/1999/xlink" width="22" height="21" version="1.1" viewBox="0 0 22 21"><title>icon/30/评论分享</title><defs><path id="path-1" d="M22,5 C24.21,5 26,6.79 26,9 L26,9 L26,18 C26,20.21 24.21,22 22,22 L22,22 L14.69,22 L11.05,25.65 C10.8,25.89 10.5,26 10.21,26 C9.59,26 9,25.52 9,24.8 L9,24.8 L9,22 L8,22 C5.79,22 4,20.21 4,18 L4,18 L4,9 C4,6.79 5.79,5 8,5 L8,5 Z M22,6.5 L8,6.5 C6.62,6.5 5.5,7.62 5.5,9 L5.5,9 L5.5,18 C5.5,19.38 6.62,20.5 8,20.5 L8,20.5 L10.5,20.5 L10.5,24.07 L14.07,20.5 L22,20.5 C23.38,20.5 24.5,19.38 24.5,18 L24.5,18 L24.5,9 C24.5,7.62 23.38,6.5 22,6.5 L22,6.5 Z M15.25,15 C15.664,15 16,15.336 16,15.75 C16,16.164 15.664,16.5 15.25,16.5 L15.25,16.5 L8.75,16.5 C8.336,16.5 8,16.164 8,15.75 C8,15.336 8.336,15 8.75,15 L8.75,15 Z M21.25,15 C21.664,15 22,15.336 22,15.75 C22,16.164 21.664,16.5 21.25,16.5 L21.25,16.5 L18.75,16.5 C18.336,16.5 18,16.164 18,15.75 C18,15.336 18.336,15 18.75,15 L18.75,15 Z M21.25,10.5 C21.664,10.5 22,10.836 22,11.25 C22,11.664 21.664,12 21.25,12 L21.25,12 L8.75,12 C8.336,12 8,11.664 8,11.25 C8,10.836 8.336,10.5 8.75,10.5 L8.75,10.5 Z"/></defs><g id="站酷4.5.3注册登录优化/企业信息认证补充" fill="none" fill-rule="evenodd" stroke="none" stroke-width="1"><g id="作品详情页_登录注册浮窗默认展示" transform="translate(-1259.000000, -178.000000)"><g id="登录注册弹窗" transform="translate(1223.000000, 56.000000)"><g id="编组-4" transform="translate(0.000000, 66.000000)"><g id="编组-3" transform="translate(32.000000, 50.000000)"><g id="编组" transform="translate(0.000000, 1.000000)"><rect id="矩形" width="30" height="30" x="0" y="0"/><mask id="mask-2" fill="#fff"><use xlink:href="#path-1"/></mask><use id="形状结合" fill="#000" xlink:href="#path-1"/><rect id="矩形" width="30" height="30" x="0" y="0" fill="#444" mask="url(#mask-2)"/></g></g></g></g></g></g></svg>