<svg xmlns="http://www.w3.org/2000/svg" xmlns:xlink="http://www.w3.org/1999/xlink" width="22" height="22" version="1.1" viewBox="0 0 22 22"><title>icon/30/收藏灵感</title><defs><path id="path-1" d="M17.41,4 C17.93,4 18.44,4.19 18.83,4.58 L18.83,4.58 L23.72,9.47 C25.07,10.1 26,11.48 26,13.07 L26,13.07 L26,21.07 C26,23.28 24.21,25.07 22,25.07 L22,25.07 L8,25.07 C5.79,25.07 4,23.28 4,21.07 L4,21.07 L4,9.07 C4,6.86 5.79,5.07 8,5.07 L8,5.07 L14.12,5.07 C14.5,5.07 14.87,5.18 15.19,5.39 L15.19,5.39 L16,4.58 C16.39,4.19 16.9,4 17.41,4 Z M22,10.57 L5.5,10.57 L5.5,21.07 C5.5,22.45 6.62,23.57 8,23.57 L8,23.57 L22,23.57 C23.38,23.57 24.5,22.45 24.5,21.07 L24.5,21.07 L24.5,13.06 C24.5,11.98 23.8,11.06 22.84,10.72 C22.58,10.62 22.29,10.57 22,10.57 L22,10.57 Z M14.07,13.2358 C14.421,12.5238 15.579,12.5228 15.93,13.2368 L15.93,13.2368 L16.799,14.9978 L18.743,15.2798 C19.137,15.3368 19.458,15.6078 19.581,15.9858 C19.703,16.3648 19.603,16.7718 19.318,17.0488 L19.318,17.0488 L17.911,18.4198 L18.243,20.3558 C18.311,20.7468 18.153,21.1358 17.832,21.3698 C17.649,21.5018 17.437,21.5698177 17.222,21.5698177 C17.058,21.5698177 16.892,21.5298 16.739,21.4498 L16.739,21.4498 L15,20.5348 L13.262,21.4488 C12.909,21.6348 12.49,21.6048 12.168,21.3698 C11.847,21.1358 11.689,20.7468 11.757,20.3548 L11.757,20.3548 L12.089,18.4198 L10.682,17.0488 C10.397,16.7718 10.297,16.3648 10.419,15.9858 C10.543,15.6078 10.863,15.3368 11.257,15.2798 L11.257,15.2798 L13.201,14.9978 Z M15,14.7418 L14.438,15.8798 C14.286,16.1868 13.994,16.3978 13.658,16.4468 L13.658,16.4468 L12.401,16.6298 L13.31,17.5158 C13.556,17.7558 13.667,18.0998 13.608,18.4348 L13.608,18.4348 L13.394,19.6848 L14.517,19.0948 C14.669,19.0148 14.835,18.9748 15.001,18.9748 C15.166,18.9748 15.331,19.0148 15.481,19.0938 L15.481,19.0938 L16.606,19.6848 L16.392,18.4338 C16.334,18.0998 16.444,17.7558 16.689,17.5168 L16.689,17.5168 L17.599,16.6298 L16.341,16.4468 C16.006,16.3978 15.714,16.1868 15.563,15.8818 L15.563,15.8818 L15,14.7418 Z M14.01,6.57 L8,6.57 C6.622,6.57 5.5,7.692 5.5,9.07 L5.5,9.07 L11.51,9.07 L14.01,6.57 Z M17.41,5.5 C17.34,5.5 17.19,5.52 17.06,5.65 L17.06,5.65 L16.26,6.45 L13.64,9.07 L21.19,9.07 L17.77,5.65 C17.64,5.52 17.49,5.5 17.41,5.5 Z"/></defs><g id="站酷4.5.3注册登录优化/企业信息认证补充" fill="none" fill-rule="evenodd" stroke="none" stroke-width="1"><g id="作品详情页_登录注册浮窗默认展示" transform="translate(-1259.000000, -221.000000)"><g id="登录注册弹窗" transform="translate(1223.000000, 56.000000)"><g id="编组-4" transform="translate(0.000000, 66.000000)"><g id="编组-3" transform="translate(32.000000, 94.000000)"><g id="编组" transform="translate(0.000000, 1.000000)"><rect id="矩形" width="30" height="30" x="0" y="0"/><mask id="mask-2" fill="#fff"><use xlink:href="#path-1"/></mask><use id="形状结合" fill="#000" xlink:href="#path-1"/><rect id="矩形" width="30" height="30" x="0" y="0" fill="#444" mask="url(#mask-2)"/></g></g></g></g></g></g></svg>