<?xml version="1.0" encoding="UTF-8"?>
<svg width="22px" height="25px" viewBox="0 0 22 25" version="1.1" xmlns="http://www.w3.org/2000/svg" xmlns:xlink="http://www.w3.org/1999/xlink">
    <title>icon/30/上传个人作品</title>
    <defs>
        <path d="M15,3.25 C15.05,3.25 15.1,3.26 15.15,3.27 C15.4,3.32 15.6,3.49 15.69,3.72 C15.71,3.74 15.71,3.76 15.72,3.78 L15.72,3.78 L15.74,3.86 L16.09,5 L22,5 C24.21,5 26,6.79 26,9 L26,9 L26,19 C26,21.21 24.21,23 22,23 L22,23 L21.57,23 L22.72,26.78 C22.84,27.18 22.61,27.6 22.22,27.72 C22.15,27.74 22.07,27.75 22,27.75 C21.68,27.75 21.38,27.54 21.28,27.22 L21.28,27.22 L20,23 L15.75,23 L15.75,27 C15.75,27.41 15.41,27.75 15,27.75 C14.59,27.75 14.25,27.41 14.25,27 L14.25,27 L14.25,23 L10,23 L8.72,27.22 C8.6,27.62 8.17,27.84 7.78,27.72 C7.39,27.6 7.16,27.18 7.28,26.78 L7.28,26.78 L8.43,23 L8,23 C5.79,23 4,21.21 4,19 L4,19 L4,9 C4,6.79 5.79,5 8,5 L8,5 L13.91,5 L14.26,3.86 L14.28,3.78 C14.29,3.76 14.29,3.74 14.31,3.72 C14.4,3.49 14.6,3.32 14.85,3.27 C14.9,3.26 14.95,3.25 15,3.25 Z M22,6.5 L8,6.5 C6.62,6.5 5.5,7.62 5.5,9 L5.5,9 L5.5,19 C5.5,20.38 6.62,21.5 8,21.5 L8,21.5 L22,21.5 C23.38,21.5 24.5,20.38 24.5,19 L24.5,19 L24.5,9 C24.5,7.62 23.38,6.5 22,6.5 L22,6.5 Z M18.4693,11.4698 C18.7593,11.1798 19.2403,11.1798 19.5303,11.4698 L19.5303,11.4698 L22.5303,14.4698 C22.8203,14.7598 22.8203,15.2408 22.5303,15.5298 C22.2403,15.8198 21.7593,15.8198 21.4693,15.5298 L21.4693,15.5298 L19.0003,13.0598 L14.5303,17.5298 C14.4503,17.6098 14.3503,17.6698 14.2503,17.7098 C13.9903,17.7998 13.6803,17.7408 13.4693,17.5298 L13.4693,17.5298 L12.0903,16.1498 L12.0003,16.0598 L9.9103,18.1598 L8.5303,19.5298 C8.3803,19.6798 8.1903,19.7498 8.0003,19.7498 C7.8103,19.7498 7.6203,19.6798 7.4693,19.5298 C7.1803,19.2408 7.1803,18.7598 7.4693,18.4698 L7.4693,18.4698 L10.8303,15.1098 L11.4693,14.4698 C11.7593,14.1798 12.2403,14.1798 12.5303,14.4698 L12.5303,14.4698 L14.0003,15.9398 L15.7503,14.1898 L16.9503,12.9908 L18.1603,11.7798 Z M10.5,8 C11.4,8 12.2,8.48 12.63,9.2 C12.87,9.58 13,10.02 13,10.5 C13,11.51 12.4,12.38 11.54,12.77 C11.22,12.92 10.87,13 10.5,13 C9.12,13 8,11.88 8,10.5 C8,9.12 9.12,8 10.5,8 Z M10.5,9.5 C9.95,9.5 9.5,9.95 9.5,10.5 C9.5,11.05 9.95,11.5 10.5,11.5 C11.05,11.5 11.5,11.05 11.5,10.5 C11.5,9.95 11.05,9.5 10.5,9.5 Z" id="path-1"></path>
    </defs>
    <g id="站酷4.5.3注册登录优化/企业信息认证补充" stroke="none" stroke-width="1" fill="none" fill-rule="evenodd">
        <g id="作品详情页_登录注册浮窗默认展示" transform="translate(-1259.000000, -132.000000)">
            <g id="登录注册弹窗" transform="translate(1223.000000, 56.000000)">
                <g id="编组-4" transform="translate(0.000000, 66.000000)">
                    <g id="编组-2" transform="translate(32.000000, 6.000000)">
                        <g id="编组" transform="translate(0.000000, 1.000000)">
                            <rect id="矩形" x="0" y="0" width="30" height="30"></rect>
                            <mask id="mask-2" fill="white">
                                <use xlink:href="#path-1"></use>
                            </mask>
                            <use id="形状结合" fill="#000000" xlink:href="#path-1"></use>
                            <rect id="矩形" fill="#444444" mask="url(#mask-2)" x="0" y="0" width="30" height="30"></rect>
                        </g>
                    </g>
                </g>
            </g>
        </g>
    </g>
</svg>